<svg width="148" height="30" viewBox="0 0 148 30" fill="none" xmlns="http://www.w3.org/2000/svg">
<path fill-rule="evenodd" clip-rule="evenodd" d="M3.37289 22.778C1.84698 20.5073 1.02277 17.8431 1.00047 15.1138L1 15V1H7.86825H15.0799L15.1944 1.00046C17.9392 1.02264 20.6186 1.84217 22.9023 3.35942C25.2177 4.89776 27.0224 7.08426 28.0882 9.64244C29.1536 12.2006 29.4325 15.0155 28.8892 17.7313C28.3459 20.447 27.005 22.9416 25.0359 24.8995C23.0668 26.8574 20.558 28.1907 17.8268 28.7309C15.0955 29.2711 12.2645 28.9939 9.69177 27.9344C7.11899 26.8747 4.92001 25.0802 3.37289 22.778ZM9.37162 18.7925C8.63848 17.7015 8.23753 16.4242 8.21558 15.1138H15.1944V8.17462C16.5122 8.19646 17.7968 8.59513 18.8941 9.3241C20.0231 10.0742 20.903 11.1403 21.4226 12.3877C21.9422 13.635 22.0782 15.0076 21.8133 16.3318C21.5484 17.6559 20.8946 18.8723 19.9344 19.827C18.9743 20.7816 17.751 21.4318 16.4193 21.6952C15.0875 21.9586 13.7072 21.8234 12.4527 21.3067C11.1982 20.79 10.126 19.9151 9.37162 18.7925ZM73.3609 21.9411C74.0715 21.9411 74.7286 21.8833 75.3321 21.7677V19.7015C74.8939 19.7785 74.4365 19.8171 73.9596 19.8171C73.4923 19.8171 73.1226 19.6774 72.8499 19.398C72.5871 19.1091 72.4557 18.4396 72.4557 17.3896V8.54661H74.9669V6.40812H72.4557V2.5935H69.7109V6.40812H67.7983V8.54661H69.7109V17.2451C69.7109 18.324 69.7741 19.1765 69.9007 19.8026C70.0273 20.4288 70.3533 20.9441 70.879 21.3487C71.4046 21.7437 72.2318 21.9411 73.3609 21.9411ZM38.7875 8.24317C40.014 6.7886 41.4886 6.06133 43.2114 6.06133C45.2359 6.06133 46.803 6.77417 47.9127 8.19982C49.0224 9.61585 49.5771 11.5328 49.5771 13.9507C49.5771 16.4648 48.9541 18.454 47.7082 19.9182C46.4722 21.3728 44.9099 22.1001 43.0216 22.1001C41.3475 22.1001 39.9361 21.5847 38.7875 20.554V27.6341H36.0281V6.40812H38.7875V8.24317ZM38.7875 18.0976C39.9652 19.3402 41.3182 19.9616 42.8464 19.9616C44.0339 19.9616 44.9781 19.4606 45.6789 18.4588C46.3797 17.4474 46.7302 15.9446 46.7302 13.9507C46.7302 12.0626 46.3991 10.6321 45.7373 9.65922C45.0754 8.67664 44.1507 8.18537 42.9632 8.18537C41.435 8.18537 40.0433 9.06197 38.7875 10.8152V18.0976ZM62.4837 17.7075V14.3119H60.6004C56.6097 14.3119 54.6143 15.3859 54.6143 17.5341C54.6143 18.3143 54.9062 18.9164 55.4902 19.3403C56.0742 19.7545 56.8627 19.9616 57.8554 19.9616C58.7606 19.9616 59.6368 19.7593 60.4836 19.3547C61.3303 18.9501 61.9972 18.401 62.4837 17.7075ZM62.4837 20.1639C61.0821 21.4547 59.2766 22.1001 57.0671 22.1001C55.5291 22.1001 54.2637 21.6907 53.2711 20.8719C52.2781 20.0434 51.7818 18.979 51.7818 17.6786C51.7818 14.0951 54.9013 12.3034 61.1405 12.3034H62.4837C62.4837 11.2053 62.4253 10.4106 62.3085 9.9193C62.1918 9.41839 61.8657 9.00418 61.3303 8.67664C60.795 8.34913 59.9433 8.18537 58.7753 8.18537C56.3224 8.18537 55.057 9.05234 54.9792 10.7863H52.2344C52.4388 7.6363 54.6678 6.06133 58.9213 6.06133C60.9069 6.06133 62.4546 6.45146 63.5643 7.23173C64.6737 8.012 65.2287 9.54362 65.2287 11.8266V21.7388H62.4837V20.1639ZM84.2235 22.1001C81.946 22.1001 80.1161 21.3969 78.7339 19.9905C77.3518 18.5744 76.6606 16.6045 76.6606 14.0807C76.6606 11.5761 77.3273 9.61585 78.6609 8.19982C80.0041 6.77417 81.7562 6.06133 83.917 6.06133C86.1265 6.06133 87.8882 6.75971 89.2023 8.15648C90.526 9.55325 91.1879 11.528 91.1879 14.0807V14.7309H79.5222C79.6392 16.5034 80.1307 17.8183 80.997 18.6756C81.873 19.5329 82.9485 19.9616 84.2235 19.9616C85.1871 19.9616 86.0534 19.7207 86.8225 19.2391C87.6011 18.7478 88.01 18.0543 88.0489 17.1584H90.896C90.6817 18.7382 89.9567 19.9568 88.7204 20.8141C87.4939 21.6714 85.9951 22.1001 84.2235 22.1001ZM88.2824 12.5924C88.0585 11.1186 87.5574 10.0156 86.7787 9.28352C85.9999 8.55142 85.0461 8.18537 83.917 8.18537C82.8171 8.18537 81.873 8.55142 81.0845 9.28352C80.296 10.006 79.7949 11.109 79.5808 12.5924H88.2824ZM103.584 21.7388H107L101.277 13.7484L106.547 6.40812H103.131L99.729 11.7688L96.3272 6.40812H92.9107L98.1814 13.7773L92.4581 21.7388H95.8746L99.729 15.7568L103.584 21.7388ZM113.816 6.95312H115.711V6.27344H111.176V6.95312H113.055V12H113.816V6.95312ZM116.531 12H120.801V11.3203H117.289V9.38281H120.449V8.70312H117.289V6.95312H120.668V6.27344H116.531V12ZM122.215 11.5547C122.616 11.9167 123.22 12.0977 124.027 12.0977C124.658 12.0977 125.168 11.9349 125.559 11.6094C125.952 11.2839 126.148 10.875 126.148 10.3828C126.148 9.99479 126.042 9.6862 125.828 9.45703C125.615 9.22526 125.358 9.05469 125.059 8.94531C124.759 8.83594 124.354 8.72526 123.844 8.61328C123.336 8.5013 122.988 8.38542 122.801 8.26562C122.616 8.14583 122.523 7.96615 122.523 7.72656C122.523 7.46354 122.639 7.2526 122.871 7.09375C123.103 6.9349 123.43 6.85547 123.852 6.85547C124.724 6.85547 125.198 7.20182 125.273 7.89453H126.012C125.988 7.34766 125.779 6.92448 125.383 6.625C124.987 6.32552 124.466 6.17578 123.82 6.17578C123.206 6.17578 122.712 6.32422 122.34 6.62109C121.97 6.91797 121.785 7.29818 121.785 7.76172C121.785 8.17318 121.927 8.5026 122.211 8.75C122.497 8.9974 122.967 9.19141 123.621 9.33203C124.277 9.47005 124.74 9.61068 125.008 9.75391C125.276 9.89714 125.41 10.1263 125.41 10.4414C125.41 10.7409 125.28 10.9779 125.02 11.1523C124.762 11.3268 124.421 11.4141 123.996 11.4141C123.548 11.4141 123.165 11.3125 122.848 11.1094C122.533 10.9036 122.355 10.5872 122.316 10.1602H121.586C121.607 10.7279 121.816 11.1927 122.215 11.5547ZM129.379 6.95312H131.273V6.27344H126.738V6.95312H128.617V12H129.379V6.95312ZM135.812 12H136.59V6.27344H135.867V10.793L132.867 6.27344H132.094V12H132.812V7.48047L135.812 12ZM137.875 12H142.145V11.3203H138.633V9.38281H141.793V8.70312H138.633V6.95312H142.012V6.27344H137.875V12ZM145.387 6.95312H147.281V6.27344H142.746V6.95312H144.625V12H145.387V6.95312Z" fill="#1C1C20"/>
<path d="M1.00047 15.1138L0.850465 15.1144L0.85047 15.115L1.00047 15.1138ZM3.37289 22.778L3.24839 22.8617L3.24839 22.8617L3.37289 22.778ZM1 15L0.849999 15L0.850001 15.0006L1 15ZM1 1V0.85H0.85V1H1ZM15.0799 1L15.0805 0.85H15.0799V1ZM15.1944 1.00046L15.1956 0.850466L15.195 0.850464L15.1944 1.00046ZM22.9023 3.35942L22.9853 3.23448L22.9853 3.23448L22.9023 3.35942ZM28.0882 9.64244L28.2266 9.58477L28.2266 9.58476L28.0882 9.64244ZM28.8892 17.7313L29.0363 17.7607L29.0363 17.7607L28.8892 17.7313ZM25.0359 24.8995L24.9301 24.7931L24.9301 24.7931L25.0359 24.8995ZM17.8268 28.7309L17.7977 28.5838L17.7977 28.5838L17.8268 28.7309ZM9.69177 27.9344L9.63464 28.0731L9.63465 28.0731L9.69177 27.9344ZM8.21558 15.1138V14.9638H8.06304L8.0656 15.1163L8.21558 15.1138ZM9.37162 18.7925L9.24712 18.8762L9.24712 18.8762L9.37162 18.7925ZM15.1944 15.1138V15.2638H15.3444V15.1138H15.1944ZM15.1944 8.17462L15.1969 8.02465L15.0444 8.02212V8.17462H15.1944ZM18.8941 9.3241L18.9771 9.19917L18.9771 9.19917L18.8941 9.3241ZM21.4226 12.3877L21.5611 12.33L21.5611 12.33L21.4226 12.3877ZM21.8133 16.3318L21.6662 16.3023L21.6662 16.3023L21.8133 16.3318ZM19.9344 19.827L20.0402 19.9333L19.9344 19.827ZM16.4193 21.6952L16.3902 21.548L16.3902 21.548L16.4193 21.6952ZM12.4527 21.3067L12.3955 21.4454L12.3955 21.4454L12.4527 21.3067ZM75.3321 21.7677L75.3603 21.9151L75.4821 21.8917V21.7677H75.3321ZM75.3321 19.7015H75.4821V19.5228L75.3061 19.5537L75.3321 19.7015ZM72.8499 19.398L72.7389 19.499L72.7426 19.5028L72.8499 19.398ZM72.4557 8.54661V8.39661H72.3057V8.54661H72.4557ZM74.9669 8.54661V8.69661H75.1169V8.54661H74.9669ZM74.9669 6.40812H75.1169V6.25812H74.9669V6.40812ZM72.4557 6.40812H72.3057V6.55812H72.4557V6.40812ZM72.4557 2.5935H72.6057V2.4435H72.4557V2.5935ZM69.7109 2.5935V2.4435H69.5609V2.5935H69.7109ZM69.7109 6.40812V6.55812H69.8609V6.40812H69.7109ZM67.7983 6.40812V6.25812H67.6483V6.40812H67.7983ZM67.7983 8.54661H67.6483V8.69661H67.7983V8.54661ZM69.7109 8.54661H69.8609V8.39661H69.7109V8.54661ZM69.9007 19.8026L70.0477 19.7729L70.0477 19.7729L69.9007 19.8026ZM70.879 21.3487L70.7875 21.4676L70.7889 21.4686L70.879 21.3487ZM38.7875 8.24317H38.6375V8.65377L38.9022 8.33986L38.7875 8.24317ZM47.9127 8.19982L47.7943 8.29196L47.7946 8.29235L47.9127 8.19982ZM47.7082 19.9182L47.594 19.821L47.5939 19.8211L47.7082 19.9182ZM38.7875 20.554L38.8877 20.4424L38.6375 20.2178V20.554H38.7875ZM38.7875 27.6341V27.7841H38.9375V27.6341H38.7875ZM36.0281 27.6341H35.8781V27.7841H36.0281V27.6341ZM36.0281 6.40812V6.25812H35.8781V6.40812H36.0281ZM38.7875 6.40812H38.9375V6.25812H38.7875V6.40812ZM38.7875 18.0976H38.6375V18.1574L38.6786 18.2008L38.7875 18.0976ZM45.6789 18.4588L45.8018 18.5448L45.8022 18.5443L45.6789 18.4588ZM45.7373 9.65922L45.6129 9.74302L45.6132 9.74359L45.7373 9.65922ZM38.7875 10.8152L38.6656 10.7278L38.6375 10.767V10.8152H38.7875ZM62.4837 14.3119H62.6337V14.1619H62.4837V14.3119ZM62.4837 17.7075L62.6065 17.7936L62.6337 17.7548V17.7075H62.4837ZM55.4902 19.3403L55.4021 19.4617L55.4034 19.4626L55.4902 19.3403ZM60.4836 19.3547L60.5483 19.49L60.5483 19.49L60.4836 19.3547ZM62.4837 20.1639H62.6337V19.8218L62.382 20.0535L62.4837 20.1639ZM53.2711 20.8719L53.175 20.987L53.1756 20.9876L53.2711 20.8719ZM62.4837 12.3034V12.4534H62.6337V12.3034H62.4837ZM62.3085 9.9193L62.1624 9.95335L62.1626 9.95398L62.3085 9.9193ZM61.3303 8.67664L61.252 8.80459L61.252 8.80461L61.3303 8.67664ZM54.9792 10.7863V10.9363H55.1226L55.129 10.793L54.9792 10.7863ZM52.2344 10.7863L52.0847 10.7765L52.0743 10.9363H52.2344V10.7863ZM63.5643 7.23173L63.6506 7.10904L63.6505 7.10903L63.5643 7.23173ZM65.2287 21.7388V21.8888H65.3787V21.7388H65.2287ZM62.4837 21.7388H62.3337V21.8888H62.4837V21.7388ZM78.7339 19.9905L78.6266 20.0952L78.627 20.0956L78.7339 19.9905ZM78.6609 8.19982L78.5517 8.09696L78.5517 8.09698L78.6609 8.19982ZM89.2023 8.15648L89.0931 8.25927L89.0934 8.25966L89.2023 8.15648ZM91.1879 14.7309V14.8809H91.3379V14.7309H91.1879ZM79.5222 14.7309V14.5809H79.362L79.3725 14.7408L79.5222 14.7309ZM80.997 18.6756L80.8915 18.7822L80.8921 18.7828L80.997 18.6756ZM86.8225 19.2391L86.9021 19.3662L86.9025 19.3659L86.8225 19.2391ZM88.0489 17.1584V17.0084H87.9053L87.899 17.1519L88.0489 17.1584ZM90.896 17.1584L91.0447 17.1786L91.0677 17.0084H90.896V17.1584ZM88.7204 20.8141L88.6349 20.6908L88.6344 20.6911L88.7204 20.8141ZM86.7787 9.28352L86.8815 9.17423L86.8815 9.17422L86.7787 9.28352ZM88.2824 12.5924V12.7424H88.4569L88.4307 12.5699L88.2824 12.5924ZM81.0845 9.28352L81.1858 9.39411L81.1866 9.39344L81.0845 9.28352ZM79.5808 12.5924L79.4323 12.571L79.4076 12.7424H79.5808V12.5924ZM107 21.7388V21.8888H107.292L107.122 21.6515L107 21.7388ZM103.584 21.7388L103.457 21.8201L103.502 21.8888H103.584V21.7388ZM101.277 13.7484L101.155 13.6609L101.092 13.7482L101.155 13.8357L101.277 13.7484ZM106.547 6.40812L106.669 6.49561L106.84 6.25812H106.547V6.40812ZM103.131 6.40812V6.25812H103.048L103.004 6.32775L103.131 6.40812ZM99.729 11.7688L99.6024 11.8492L99.729 12.0488L99.8557 11.8492L99.729 11.7688ZM96.3272 6.40812L96.4538 6.32775L96.4097 6.25812H96.3272V6.40812ZM92.9107 6.40812V6.25812H92.619L92.7887 6.49538L92.9107 6.40812ZM98.1814 13.7773L98.3032 13.8648L98.366 13.7775L98.3034 13.69L98.1814 13.7773ZM92.4581 21.7388L92.3363 21.6513L92.1655 21.8888H92.4581V21.7388ZM95.8746 21.7388V21.8888H95.9564L96.0007 21.8201L95.8746 21.7388ZM99.729 15.7568L99.8551 15.6756L99.729 15.4799L99.603 15.6756L99.729 15.7568ZM115.711 6.95312V7.10313H115.861V6.95312H115.711ZM113.816 6.95312V6.80312H113.666V6.95312H113.816ZM115.711 6.27344H115.861V6.12344H115.711V6.27344ZM111.176 6.27344V6.12344H111.026V6.27344H111.176ZM111.176 6.95312H111.026V7.10313H111.176V6.95312ZM113.055 6.95312H113.205V6.80312H113.055V6.95312ZM113.055 12H112.905V12.15H113.055V12ZM113.816 12V12.15H113.966V12H113.816ZM120.801 12V12.15H120.951V12H120.801ZM116.531 12H116.381V12.15H116.531V12ZM120.801 11.3203H120.951V11.1703H120.801V11.3203ZM117.289 11.3203H117.139V11.4703H117.289V11.3203ZM117.289 9.38281V9.23281H117.139V9.38281H117.289ZM120.449 9.38281V9.53281H120.599V9.38281H120.449ZM120.449 8.70312H120.599V8.55312H120.449V8.70312ZM117.289 8.70312H117.139V8.85313H117.289V8.70312ZM117.289 6.95312V6.80312H117.139V6.95312H117.289ZM120.668 6.95312V7.10313H120.818V6.95312H120.668ZM120.668 6.27344H120.818V6.12344H120.668V6.27344ZM116.531 6.27344V6.12344H116.381V6.27344H116.531ZM122.215 11.5547L122.114 11.6657L122.114 11.666L122.215 11.5547ZM125.559 11.6094L125.463 11.4938L125.463 11.4941L125.559 11.6094ZM125.828 9.45703L125.718 9.55867L125.718 9.55929L125.828 9.45703ZM123.844 8.61328L123.811 8.75976L123.812 8.7598L123.844 8.61328ZM122.801 8.26562L122.719 8.39152L122.72 8.39203L122.801 8.26562ZM125.273 7.89453L125.124 7.91079L125.139 8.04453H125.273V7.89453ZM126.012 7.89453V8.04453H126.168L126.162 7.88811L126.012 7.89453ZM122.34 6.62109L122.246 6.5038L122.246 6.50412L122.34 6.62109ZM122.211 8.75L122.112 8.86308L122.113 8.86352L122.211 8.75ZM123.621 9.33203L123.59 9.47868L123.59 9.47882L123.621 9.33203ZM125.02 11.1523L124.936 11.0277L124.935 11.0281L125.02 11.1523ZM122.848 11.1094L122.766 11.235L122.767 11.2358L122.848 11.1094ZM122.316 10.1602L122.466 10.1465L122.453 10.0102H122.316V10.1602ZM121.586 10.1602V10.0102H121.43L121.436 10.1657L121.586 10.1602ZM131.273 6.95312V7.10313H131.423V6.95312H131.273ZM129.379 6.95312V6.80312H129.229V6.95312H129.379ZM131.273 6.27344H131.423V6.12344H131.273V6.27344ZM126.738 6.27344V6.12344H126.588V6.27344H126.738ZM126.738 6.95312H126.588V7.10313H126.738V6.95312ZM128.617 6.95312H128.767V6.80312H128.617V6.95312ZM128.617 12H128.467V12.15H128.617V12ZM129.379 12V12.15H129.529V12H129.379ZM136.59 12V12.15H136.74V12H136.59ZM135.812 12L135.688 12.083L135.732 12.15H135.812V12ZM136.59 6.27344H136.74V6.12344H136.59V6.27344ZM135.867 6.27344V6.12344H135.717V6.27344H135.867ZM135.867 10.793L135.742 10.8759L136.017 11.2902V10.793H135.867ZM132.867 6.27344L132.992 6.19048L132.948 6.12344H132.867V6.27344ZM132.094 6.27344V6.12344H131.944V6.27344H132.094ZM132.094 12H131.944V12.15H132.094V12ZM132.812 12V12.15H132.963V12H132.812ZM132.812 7.48047L132.937 7.39751L132.662 6.98326V7.48047H132.812ZM142.145 12V12.15H142.295V12H142.145ZM137.875 12H137.725V12.15H137.875V12ZM142.145 11.3203H142.295V11.1703H142.145V11.3203ZM138.633 11.3203H138.483V11.4703H138.633V11.3203ZM138.633 9.38281V9.23281H138.483V9.38281H138.633ZM141.793 9.38281V9.53281H141.943V9.38281H141.793ZM141.793 8.70312H141.943V8.55312H141.793V8.70312ZM138.633 8.70312H138.483V8.85313H138.633V8.70312ZM138.633 6.95312V6.80312H138.483V6.95312H138.633ZM142.012 6.95312V7.10313H142.162V6.95312H142.012ZM142.012 6.27344H142.162V6.12344H142.012V6.27344ZM137.875 6.27344V6.12344H137.725V6.27344H137.875ZM147.281 6.95312V7.10313H147.431V6.95312H147.281ZM145.387 6.95312V6.80312H145.237V6.95312H145.387ZM147.281 6.27344H147.431V6.12344H147.281V6.27344ZM142.746 6.27344V6.12344H142.596V6.27344H142.746ZM142.746 6.95312H142.596V7.10313H142.746V6.95312ZM144.625 6.95312H144.775V6.80312H144.625V6.95312ZM144.625 12H144.475V12.15H144.625V12ZM145.387 12V12.15H145.537V12H145.387ZM0.85047 15.115C0.873018 17.8737 1.70611 20.5666 3.24839 22.8617L3.49739 22.6943C1.98784 20.4479 1.17253 17.8124 1.15046 15.1126L0.85047 15.115ZM0.850001 15.0006L0.850466 15.1144L1.15046 15.1132L1.15 14.9994L0.850001 15.0006ZM0.85 1V15H1.15V1H0.85ZM7.86825 0.85H1V1.15H7.86825V0.85ZM15.0799 0.85H7.86825V1.15H15.0799V0.85ZM15.195 0.850464L15.0805 0.850001L15.0793 1.15L15.1938 1.15046L15.195 0.850464ZM22.9853 3.23448C20.6773 1.70108 17.9695 0.872883 15.1956 0.850467L15.1932 1.15046C17.9089 1.1724 20.5599 1.98326 22.8193 3.48436L22.9853 3.23448ZM28.2266 9.58476C27.1494 6.99907 25.3253 4.7892 22.9853 3.23448L22.8193 3.48436C25.11 5.00632 26.8954 7.16945 27.9497 9.70012L28.2266 9.58476ZM29.0363 17.7607C29.5854 15.0157 29.3036 12.1704 28.2266 9.58477L27.9497 9.70011C29.0037 12.2308 29.2796 15.0154 28.7421 17.7019L29.0363 17.7607ZM25.1417 25.0058C27.1318 23.027 28.4872 20.5057 29.0363 17.7607L28.7421 17.7019C28.2047 20.3883 26.8782 22.8561 24.9301 24.7931L25.1417 25.0058ZM17.8559 28.8781C20.616 28.3322 23.1515 26.9847 25.1417 25.0058L24.9301 24.7931C22.9821 26.7301 20.5 28.0493 17.7977 28.5838L17.8559 28.8781ZM9.63465 28.0731C12.2347 29.1438 15.0957 29.424 17.8559 28.8781L17.7977 28.5838C15.0954 29.1183 12.2943 28.8439 9.74889 27.7957L9.63465 28.0731ZM3.24839 22.8617C4.81209 25.1886 7.03455 27.0022 9.63464 28.0731L9.7489 27.7957C7.20343 26.7473 5.02793 24.9719 3.49739 22.6943L3.24839 22.8617ZM8.0656 15.1163C8.08804 16.4557 8.49786 17.7612 9.24712 18.8762L9.49612 18.7088C8.7791 17.6418 8.38703 16.3927 8.36556 15.1113L8.0656 15.1163ZM15.1944 14.9638H8.21558V15.2638H15.1944V14.9638ZM15.0444 8.17462V15.1138H15.3444V8.17462H15.0444ZM18.9771 9.19917C17.8559 8.45427 16.5433 8.04695 15.1969 8.02465L15.1919 8.3246C16.4811 8.34596 17.7378 8.73598 18.8111 9.44904L18.9771 9.19917ZM21.5611 12.33C21.03 11.0551 20.1307 9.96565 18.9771 9.19917L18.811 9.44904C19.9154 10.1828 20.776 11.2255 21.2842 12.4454L21.5611 12.33ZM21.9604 16.3612C22.2311 15.0077 22.0922 13.6049 21.5611 12.33L21.2842 12.4453C21.7923 13.6652 21.9253 15.0074 21.6662 16.3023L21.9604 16.3612ZM20.0402 19.9333C21.0214 18.9577 21.6896 17.7146 21.9604 16.3612L21.6662 16.3023C21.4072 17.5972 20.7677 18.7868 19.8287 19.7206L20.0402 19.9333ZM16.4484 21.8423C17.809 21.5732 19.059 20.9089 20.0402 19.9333L19.8287 19.7206C18.8895 20.6544 17.693 21.2904 16.3902 21.548L16.4484 21.8423ZM12.3955 21.4454C13.6773 21.9733 15.0877 22.1114 16.4484 21.8423L16.3902 21.548C15.0874 21.8057 13.737 21.6734 12.5098 21.168L12.3955 21.4454ZM9.24712 18.8762C10.0181 20.0234 11.1138 20.9175 12.3955 21.4454L12.5098 21.168C11.2826 20.6626 10.2339 19.8068 9.49612 18.7088L9.24712 18.8762ZM75.3039 21.6204C74.711 21.734 74.0635 21.7911 73.3609 21.7911V22.0911C74.0796 22.0911 74.7462 22.0327 75.3603 21.9151L75.3039 21.6204ZM75.1821 19.7015V21.7677H75.4821V19.7015H75.1821ZM73.9596 19.9671C74.4446 19.9671 74.9107 19.9279 75.3581 19.8492L75.3061 19.5537C74.8771 19.6292 74.4284 19.6671 73.9596 19.6671V19.9671ZM72.7426 19.5028C73.0489 19.8167 73.4604 19.9671 73.9596 19.9671V19.6671C73.5242 19.6671 73.1962 19.5381 72.9573 19.2933L72.7426 19.5028ZM72.3057 17.3896C72.3057 17.9197 72.3388 18.3602 72.407 18.7081C72.4746 19.0522 72.58 19.3242 72.7389 19.499L72.9609 19.2971C72.857 19.1829 72.7653 18.9757 72.7014 18.6503C72.6383 18.3287 72.6057 17.9095 72.6057 17.3896H72.3057ZM72.3057 8.54661V17.3896H72.6057V8.54661H72.3057ZM74.9669 8.39661H72.4557V8.69661H74.9669V8.39661ZM74.8169 6.40812V8.54661H75.1169V6.40812H74.8169ZM72.4557 6.55812H74.9669V6.25812H72.4557V6.55812ZM72.3057 2.5935V6.40812H72.6057V2.5935H72.3057ZM69.7109 2.7435H72.4557V2.4435H69.7109V2.7435ZM69.8609 6.40812V2.5935H69.5609V6.40812H69.8609ZM67.7983 6.55812H69.7109V6.25812H67.7983V6.55812ZM67.9483 8.54661V6.40812H67.6483V8.54661H67.9483ZM69.7109 8.39661H67.7983V8.69661H69.7109V8.39661ZM69.8609 17.2451V8.54661H69.5609V17.2451H69.8609ZM70.0477 19.7729C69.924 19.161 69.8609 18.3198 69.8609 17.2451H69.5609C69.5609 18.3281 69.6242 19.192 69.7537 19.8323L70.0477 19.7729ZM70.9704 21.2298C70.4723 20.8464 70.1669 20.3622 70.0477 19.7729L69.7537 19.8323C69.8877 20.4954 70.2344 21.0419 70.7875 21.4676L70.9704 21.2298ZM73.3609 21.7911C72.2433 21.7911 71.4559 21.5946 70.9691 21.2288L70.7889 21.4686C71.3533 21.8927 72.2202 22.0911 73.3609 22.0911V21.7911ZM43.2114 5.91133C41.4394 5.91133 39.9244 6.66209 38.6728 8.14648L38.9022 8.33986C40.1035 6.91511 41.5377 6.21133 43.2114 6.21133V5.91133ZM48.031 8.10769C46.8892 6.64078 45.2758 5.91133 43.2114 5.91133V6.21133C45.196 6.21133 46.7167 6.90756 47.7943 8.29196L48.031 8.10769ZM49.7271 13.9507C49.7271 11.5108 49.1672 9.55754 48.0307 8.1073L47.7946 8.29235C48.8775 9.67416 49.4271 11.5549 49.4271 13.9507H49.7271ZM47.8225 20.0154C49.0978 18.5167 49.7271 16.4893 49.7271 13.9507H49.4271C49.4271 16.4403 48.8105 18.3914 47.594 19.821L47.8225 20.0154ZM43.0216 22.2501C44.9544 22.2501 46.5583 21.503 47.8225 20.0153L47.5939 19.8211C46.386 21.2425 44.8653 21.9501 43.0216 21.9501V22.2501ZM38.6873 20.6656C39.8659 21.7232 41.314 22.2501 43.0216 22.2501V21.9501C41.3811 21.9501 40.0063 21.4462 38.8877 20.4424L38.6873 20.6656ZM38.9375 27.6341V20.554H38.6375V27.6341H38.9375ZM36.0281 27.7841H38.7875V27.4841H36.0281V27.7841ZM35.8781 6.40812V27.6341H36.1781V6.40812H35.8781ZM38.7875 6.25812H36.0281V6.55812H38.7875V6.25812ZM38.9375 8.24317V6.40812H38.6375V8.24317H38.9375ZM42.8464 19.8116C41.3646 19.8116 40.0495 19.2111 38.8964 17.9944L38.6786 18.2008C39.8809 19.4694 41.2719 20.1116 42.8464 20.1116V19.8116ZM45.556 18.3729C44.8823 19.336 43.9833 19.8116 42.8464 19.8116V20.1116C44.0846 20.1116 45.0739 19.5853 45.8018 18.5448L45.556 18.3729ZM46.5802 13.9507C46.5802 15.9314 46.2312 17.3983 45.5556 18.3734L45.8022 18.5443C46.5281 17.4965 46.8802 15.9579 46.8802 13.9507H46.5802ZM45.6132 9.74359C46.2508 10.6807 46.5802 12.0761 46.5802 13.9507H46.8802C46.8802 12.0492 46.5475 10.5835 45.8613 9.57484L45.6132 9.74359ZM42.9632 8.33537C44.1009 8.33537 44.9789 8.80195 45.6129 9.74302L45.8617 9.57541C45.1718 8.55134 44.2005 8.03537 42.9632 8.03537V8.33537ZM38.9095 10.9025C40.1494 9.17132 41.5013 8.33537 42.9632 8.33537V8.03537C41.3687 8.03537 39.9371 8.95262 38.6656 10.7278L38.9095 10.9025ZM38.9375 18.0976V10.8152H38.6375V18.0976H38.9375ZM62.3337 14.3119V17.7075H62.6337V14.3119H62.3337ZM60.6004 14.4619H62.4837V14.1619H60.6004V14.4619ZM54.7643 17.5341C54.7643 17.0211 54.8831 16.5793 55.1159 16.2033C55.349 15.8269 55.7017 15.508 56.1819 15.2495C57.1469 14.7301 58.6136 14.4619 60.6004 14.4619V14.1619C58.5965 14.1619 57.0701 14.4307 56.0397 14.9854C55.5223 15.2639 55.1266 15.6163 54.8609 16.0454C54.5949 16.4749 54.4643 16.973 54.4643 17.5341H54.7643ZM55.5783 19.2189C55.0367 18.8258 54.7643 18.2709 54.7643 17.5341H54.4643C54.4643 18.3578 54.7756 19.007 55.4021 19.4616L55.5783 19.2189ZM57.8554 19.8116C56.8821 19.8116 56.1275 19.6084 55.577 19.2179L55.4034 19.4626C56.0209 19.9006 56.8433 20.1116 57.8554 20.1116V19.8116ZM60.419 19.2193C59.5915 19.6146 58.7374 19.8116 57.8554 19.8116V20.1116C58.7838 20.1116 59.682 19.9039 60.5483 19.49L60.419 19.2193ZM62.3609 17.6213C61.8907 18.2915 61.2449 18.8247 60.419 19.2193L60.5483 19.49C61.4156 19.0756 62.1036 18.5105 62.6065 17.7936L62.3609 17.6213ZM57.0671 22.2501C59.3079 22.2501 61.1516 21.5945 62.5853 20.2742L62.382 20.0535C61.0125 21.3148 59.2454 21.9501 57.0671 21.9501V22.2501ZM53.1756 20.9876C54.2002 21.8327 55.5014 22.2501 57.0671 22.2501V21.9501C55.5568 21.9501 54.3273 21.5487 53.3665 20.7562L53.1756 20.9876ZM51.6318 17.6786C51.6318 19.0232 52.1476 20.1299 53.175 20.987L53.3671 20.7567C52.4086 19.957 51.9318 18.9348 51.9318 17.6786H51.6318ZM61.1405 12.1534C58.0115 12.1534 55.6404 12.6019 54.0467 13.5171C52.4406 14.4396 51.6318 15.8329 51.6318 17.6786H51.9318C51.9318 15.9408 52.6827 14.6465 54.1962 13.7773C55.7221 12.9009 58.0303 12.4534 61.1405 12.4534V12.1534ZM62.4837 12.1534H61.1405V12.4534H62.4837V12.1534ZM62.1626 9.95398C62.275 10.427 62.3337 11.2066 62.3337 12.3034H62.6337C62.6337 11.204 62.5756 10.3942 62.4545 9.88461L62.1626 9.95398ZM61.252 8.80461C61.7613 9.1161 62.0567 9.49988 62.1624 9.95335L62.4546 9.88524C62.3268 9.3369 61.9702 8.89225 61.4085 8.54868L61.252 8.80461ZM58.7753 8.33537C59.9359 8.33537 60.753 8.49929 61.252 8.80459L61.4085 8.54869C60.837 8.19898 59.9508 8.03537 58.7753 8.03537V8.33537ZM55.129 10.793C55.1662 9.966 55.483 9.36243 56.0714 8.95934C56.6682 8.55042 57.5625 8.33537 58.7753 8.33537V8.03537C57.5352 8.03537 56.5703 8.25381 55.9018 8.71185C55.2248 9.17573 54.87 9.87259 54.8293 10.7795L55.129 10.793ZM52.2344 10.9363H54.9792V10.6363H52.2344V10.9363ZM58.9213 5.91133C56.7797 5.91133 55.1233 6.30721 53.9729 7.12005C52.8154 7.93795 52.1894 9.1643 52.0847 10.7765L52.3841 10.796C52.4839 9.25825 53.0746 8.12214 54.146 7.36506C55.2246 6.60293 56.8095 6.21133 58.9213 6.21133V5.91133ZM63.6505 7.10903C62.5064 6.3045 60.9242 5.91133 58.9213 5.91133V6.21133C60.8897 6.21133 62.4028 6.59843 63.478 7.35443L63.6505 7.10903ZM65.3787 11.8266C65.3787 9.52805 64.821 7.93222 63.6506 7.10904L63.478 7.35442C64.5264 8.09177 65.0787 9.55919 65.0787 11.8266H65.3787ZM65.3787 21.7388V11.8266H65.0787V21.7388H65.3787ZM62.4837 21.8888H65.2287V21.5888H62.4837V21.8888ZM62.3337 20.1639V21.7388H62.6337V20.1639H62.3337ZM78.627 20.0956C80.0417 21.5352 81.9125 22.2501 84.2235 22.2501V21.9501C81.9795 21.9501 80.1904 21.2585 78.8409 19.8853L78.627 20.0956ZM76.5106 14.0807C76.5106 16.6324 77.2102 18.644 78.6266 20.0952L78.8413 19.8857C77.4935 18.5048 76.8106 16.5766 76.8106 14.0807H76.5106ZM78.5517 8.09698C77.185 9.54816 76.5106 11.5493 76.5106 14.0807H76.8106C76.8106 11.603 77.4696 9.68355 78.7701 8.30266L78.5517 8.09698ZM83.917 5.91133C81.7196 5.91133 79.9264 6.63795 78.5517 8.09696L78.7701 8.30269C80.0819 6.91039 81.7928 6.21133 83.917 6.21133V5.91133ZM89.3115 8.0537C87.9647 6.62213 86.1609 5.91133 83.917 5.91133V6.21133C86.092 6.21133 87.8117 6.8973 89.0931 8.25927L89.3115 8.0537ZM91.3379 14.0807C91.3379 11.5025 90.669 9.48605 89.3112 8.0533L89.0934 8.25966C90.3831 9.62045 91.0379 11.5535 91.0379 14.0807H91.3379ZM91.3379 14.7309V14.0807H91.0379V14.7309H91.3379ZM79.5222 14.8809H91.1879V14.5809H79.5222V14.8809ZM81.1026 18.569C80.272 17.747 79.7875 16.4734 79.6719 14.721L79.3725 14.7408C79.4908 16.5334 79.9895 17.8895 80.8915 18.7822L81.1026 18.569ZM84.2235 19.8116C82.986 19.8116 81.9486 19.3971 81.102 18.5684L80.8921 18.7828C81.7973 19.6687 82.9111 20.1116 84.2235 20.1116V19.8116ZM86.7428 19.112C85.9992 19.5777 85.1608 19.8116 84.2235 19.8116V20.1116C85.2135 20.1116 86.1077 19.8637 86.9021 19.3662L86.7428 19.112ZM87.899 17.1519C87.8623 17.997 87.4808 18.6464 86.7424 19.1122L86.9025 19.3659C87.7214 18.8493 88.1576 18.1115 88.1987 17.1649L87.899 17.1519ZM90.896 17.0084H88.0489V17.3084H90.896V17.0084ZM88.8059 20.9373C90.079 20.0545 90.8251 18.7972 91.0447 17.1786L90.7474 17.1382C90.5384 18.6791 89.8343 19.859 88.6349 20.6908L88.8059 20.9373ZM84.2235 22.2501C86.02 22.2501 87.5503 21.815 88.8063 20.937L88.6344 20.6911C87.4376 21.5278 85.9701 21.9501 84.2235 21.9501V22.2501ZM86.676 9.3928C87.4221 10.0943 87.9133 11.1614 88.1341 12.6149L88.4307 12.5699C88.2037 11.0757 87.6926 9.93691 86.8815 9.17423L86.676 9.3928ZM83.917 8.33537C85.0103 8.33537 85.9266 8.68843 86.676 9.39281L86.8815 9.17422C86.0731 8.4144 85.0819 8.03537 83.917 8.03537V8.33537ZM81.1866 9.39344C81.9466 8.68773 82.854 8.33537 83.917 8.33537V8.03537C82.7802 8.03537 81.7993 8.41511 80.9824 9.17359L81.1866 9.39344ZM79.7293 12.6138C79.9403 11.1511 80.4314 10.0853 81.1858 9.39411L80.9832 9.17292C80.1606 9.92662 79.6494 11.0668 79.4323 12.571L79.7293 12.6138ZM88.2824 12.4424H79.5808V12.7424H88.2824V12.4424ZM107 21.5888H103.584V21.8888H107V21.5888ZM101.155 13.8357L106.878 21.8262L107.122 21.6515L101.399 13.661L101.155 13.8357ZM106.426 6.32063L101.155 13.6609L101.399 13.8358L106.669 6.49561L106.426 6.32063ZM103.131 6.55812H106.547V6.25812H103.131V6.55812ZM99.8557 11.8492L103.258 6.48849L103.004 6.32775L99.6024 11.6884L99.8557 11.8492ZM96.2005 6.48849L99.6024 11.8492L99.8557 11.6884L96.4538 6.32775L96.2005 6.48849ZM92.9107 6.55812H96.3272V6.25812H92.9107V6.55812ZM98.3034 13.69L93.0327 6.32086L92.7887 6.49538L98.0594 13.8645L98.3034 13.69ZM92.5799 21.8264L98.3032 13.8648L98.0596 13.6897L92.3363 21.6513L92.5799 21.8264ZM95.8746 21.5888H92.4581V21.8888H95.8746V21.5888ZM99.603 15.6756L95.7485 21.6576L96.0007 21.8201L99.8551 15.8381L99.603 15.6756ZM103.71 21.6576L99.8551 15.6756L99.603 15.8381L103.457 21.8201L103.71 21.6576ZM115.711 6.80312H113.816V7.10313H115.711V6.80312ZM115.561 6.27344V6.95312H115.861V6.27344H115.561ZM111.176 6.42344H115.711V6.12344H111.176V6.42344ZM111.326 6.95312V6.27344H111.026V6.95312H111.326ZM113.055 6.80312H111.176V7.10313H113.055V6.80312ZM113.205 12V6.95312H112.905V12H113.205ZM113.816 11.85H113.055V12.15H113.816V11.85ZM113.666 6.95312V12H113.966V6.95312H113.666ZM120.801 11.85H116.531V12.15H120.801V11.85ZM120.651 11.3203V12H120.951V11.3203H120.651ZM117.289 11.4703H120.801V11.1703H117.289V11.4703ZM117.139 9.38281V11.3203H117.439V9.38281H117.139ZM120.449 9.23281H117.289V9.53281H120.449V9.23281ZM120.299 8.70312V9.38281H120.599V8.70312H120.299ZM117.289 8.85313H120.449V8.55312H117.289V8.85313ZM117.139 6.95312V8.70312H117.439V6.95312H117.139ZM120.668 6.80312H117.289V7.10313H120.668V6.80312ZM120.518 6.27344V6.95312H120.818V6.27344H120.518ZM116.531 6.42344H120.668V6.12344H116.531V6.42344ZM116.681 12V6.27344H116.381V12H116.681ZM124.027 11.9477C123.239 11.9477 122.678 11.7706 122.315 11.4433L122.114 11.666C122.554 12.0627 123.201 12.2477 124.027 12.2477V11.9477ZM125.463 11.4941C125.105 11.7922 124.631 11.9477 124.027 11.9477V12.2477C124.684 12.2477 125.231 12.0776 125.655 11.7246L125.463 11.4941ZM125.998 10.3828C125.998 10.8284 125.823 11.1956 125.463 11.4938L125.654 11.7249C126.08 11.3721 126.298 10.9216 126.298 10.3828H125.998ZM125.718 9.55929C125.9 9.75445 125.998 10.0232 125.998 10.3828H126.298C126.298 9.96634 126.183 9.61795 125.938 9.35477L125.718 9.55929ZM125.007 9.08621C125.284 9.18748 125.521 9.3447 125.718 9.55867L125.938 9.35539C125.708 9.10582 125.432 8.9219 125.11 8.80442L125.007 9.08621ZM123.812 8.7598C124.319 8.87112 124.717 8.98012 125.007 9.08621L125.11 8.80442C124.802 8.69175 124.389 8.5794 123.876 8.46677L123.812 8.7598ZM122.72 8.39203C122.932 8.52752 123.303 8.64771 123.811 8.75976L123.876 8.4668C123.369 8.35489 123.044 8.24332 122.882 8.13922L122.72 8.39203ZM122.373 7.72656C122.373 8.0117 122.487 8.24131 122.719 8.39151L122.882 8.13974C122.744 8.05036 122.673 7.92059 122.673 7.72656H122.373ZM122.786 6.97002C122.517 7.15458 122.373 7.4102 122.373 7.72656H122.673C122.673 7.51688 122.762 7.35062 122.956 7.21748L122.786 6.97002ZM123.852 6.70547C123.414 6.70547 123.053 6.78745 122.786 6.97002L122.956 7.21748C123.153 7.08234 123.446 7.00547 123.852 7.00547V6.70547ZM125.423 7.87827C125.381 7.49855 125.227 7.19684 124.95 6.99413C124.677 6.79504 124.305 6.70547 123.852 6.70547V7.00547C124.271 7.00547 124.571 7.08907 124.773 7.23634C124.969 7.37999 125.09 7.59781 125.124 7.91079L125.423 7.87827ZM126.012 7.74453H125.273V8.04453H126.012V7.74453ZM125.292 6.74462C125.649 7.01411 125.84 7.39357 125.862 7.90095L126.162 7.88811C126.136 7.30174 125.909 6.83485 125.473 6.50538L125.292 6.74462ZM123.82 6.32578C124.443 6.32578 124.929 6.47007 125.292 6.74462L125.473 6.50538C125.045 6.18097 124.489 6.02578 123.82 6.02578V6.32578ZM122.433 6.73838C122.772 6.46817 123.23 6.32578 123.82 6.32578V6.02578C123.182 6.02578 122.652 6.18027 122.246 6.5038L122.433 6.73838ZM121.935 7.76172C121.935 7.34486 122.098 7.00723 122.434 6.73806L122.246 6.50412C121.842 6.82871 121.635 7.2515 121.635 7.76172H121.935ZM122.309 8.63692C122.062 8.42086 121.935 8.13435 121.935 7.76172H121.635C121.635 8.21201 121.793 8.58435 122.112 8.86308L122.309 8.63692ZM123.653 9.18539C123.007 9.04656 122.567 8.85922 122.309 8.63648L122.113 8.86352C122.428 9.13557 122.928 9.33625 123.59 9.47868L123.653 9.18539ZM125.078 9.62159C124.79 9.46754 124.31 9.32354 123.652 9.18524L123.59 9.47882C124.245 9.61657 124.689 9.75381 124.937 9.88622L125.078 9.62159ZM125.56 10.4414C125.56 10.2622 125.522 10.099 125.439 9.95744C125.356 9.81562 125.233 9.70432 125.078 9.62159L124.937 9.88622C125.05 9.94672 125.129 10.0216 125.18 10.109C125.231 10.1966 125.26 10.3055 125.26 10.4414H125.56ZM125.103 11.277C125.403 11.0762 125.56 10.7936 125.56 10.4414H125.26C125.26 10.6881 125.157 10.8795 124.936 11.0277L125.103 11.277ZM123.996 11.5641C124.44 11.5641 124.813 11.4729 125.104 11.2766L124.935 11.0281C124.71 11.1807 124.401 11.2641 123.996 11.2641V11.5641ZM122.767 11.2358C123.113 11.457 123.525 11.5641 123.996 11.5641V11.2641C123.571 11.2641 123.218 11.168 122.928 10.983L122.767 11.2358ZM122.167 10.1738C122.21 10.6393 122.406 11.0005 122.766 11.235L122.93 10.9838C122.659 10.8068 122.501 10.5351 122.466 10.1465L122.167 10.1738ZM121.586 10.3102H122.316V10.0102H121.586V10.3102ZM122.316 11.4437C121.949 11.1105 121.755 10.6845 121.736 10.1547L121.436 10.1657C121.458 10.7712 121.684 11.275 122.114 11.6657L122.316 11.4437ZM131.273 6.80312H129.379V7.10313H131.273V6.80312ZM131.123 6.27344V6.95312H131.423V6.27344H131.123ZM126.738 6.42344H131.273V6.12344H126.738V6.42344ZM126.888 6.95312V6.27344H126.588V6.95312H126.888ZM128.617 6.80312H126.738V7.10313H128.617V6.80312ZM128.767 12V6.95312H128.467V12H128.767ZM129.379 11.85H128.617V12.15H129.379V11.85ZM129.229 6.95312V12H129.529V6.95312H129.229ZM136.59 11.85H135.812V12.15H136.59V11.85ZM136.44 6.27344V12H136.74V6.27344H136.44ZM135.867 6.42344H136.59V6.12344H135.867V6.42344ZM136.017 10.793V6.27344H135.717V10.793H136.017ZM132.742 6.35639L135.742 10.8759L135.992 10.71L132.992 6.19048L132.742 6.35639ZM132.094 6.42344H132.867V6.12344H132.094V6.42344ZM132.244 12V6.27344H131.944V12H132.244ZM132.812 11.85H132.094V12.15H132.812V11.85ZM132.662 7.48047V12H132.963V7.48047H132.662ZM135.937 11.917L132.937 7.39751L132.688 7.56342L135.688 12.083L135.937 11.917ZM142.145 11.85H137.875V12.15H142.145V11.85ZM141.995 11.3203V12H142.295V11.3203H141.995ZM138.633 11.4703H142.145V11.1703H138.633V11.4703ZM138.483 9.38281V11.3203H138.783V9.38281H138.483ZM141.793 9.23281H138.633V9.53281H141.793V9.23281ZM141.643 8.70312V9.38281H141.943V8.70312H141.643ZM138.633 8.85313H141.793V8.55312H138.633V8.85313ZM138.483 6.95312V8.70312H138.783V6.95312H138.483ZM142.012 6.80312H138.633V7.10313H142.012V6.80312ZM141.862 6.27344V6.95312H142.162V6.27344H141.862ZM137.875 6.42344H142.012V6.12344H137.875V6.42344ZM138.025 12V6.27344H137.725V12H138.025ZM147.281 6.80312H145.387V7.10313H147.281V6.80312ZM147.131 6.27344V6.95312H147.431V6.27344H147.131ZM142.746 6.42344H147.281V6.12344H142.746V6.42344ZM142.896 6.95312V6.27344H142.596V6.95312H142.896ZM144.625 6.80312H142.746V7.10313H144.625V6.80312ZM144.775 12V6.95312H144.475V12H144.775ZM145.387 11.85H144.625V12.15H145.387V11.85ZM145.237 6.95312V12H145.537V6.95312H145.237Z" fill="#1C1C20"/>
</svg>
