<svg width="400" height="400" viewBox="0 0 400 400" fill="none" xmlns="http://www.w3.org/2000/svg">
<path d="M2.5 199.995V2.5H97.5612H199.995H200L201.606 2.50652C201.608 2.50654 201.609 2.50655 201.611 2.50657C240.111 2.82044 277.694 14.3816 309.726 35.7847C342.204 57.4864 367.519 88.3318 382.468 124.42C397.414 160.509 401.326 200.219 393.705 238.531C386.084 276.842 367.275 312.033 339.654 339.654C312.033 367.275 276.842 386.084 238.531 393.705C200.219 401.326 160.509 397.414 124.42 382.468C88.3318 367.519 57.4864 342.204 35.7848 309.726C14.3816 277.694 2.82045 240.111 2.50657 201.611C2.50655 201.61 2.50654 201.608 2.50652 201.606L2.5 200V199.995ZM102.495 199.126H99.9529L99.9952 201.668C100.315 220.868 106.156 239.583 116.837 255.568C127.828 272.016 143.449 284.836 161.725 292.406L162.681 290.097L161.725 292.406C180.001 299.976 200.111 301.957 219.513 298.098C238.915 294.239 256.737 284.713 270.725 270.725C284.713 256.737 294.239 238.915 298.098 219.513C301.957 200.111 299.976 180.001 292.406 161.725L290.097 162.681L292.406 161.725C284.836 143.449 272.016 127.828 255.568 116.837C239.583 106.156 220.868 100.315 201.668 99.9952L199.126 99.9528V102.495V199.126H102.495Z" fill="white" stroke="#838383" stroke-width="5"/>
</svg>
